<?xml version="1.0" encoding="UTF-8"?>
<svg xmlns="http://www.w3.org/2000/svg" id="Layer_3" data-name="Layer 3" fill="#fff" viewBox="0 0 64 64" width="512" height="512"><path d="M62.5,40.136l-12-7a1,1,0,0,0-1.008,0l-6.011,3.507A9.917,9.917,0,0,0,41.92,35.8a7,7,0,0,0,3.071-5.614A17.732,17.732,0,0,0,51,16.879,15.878,15.878,0,0,0,26.952,3.263L26,3.834l-.952-.571A15.878,15.878,0,0,0,1,16.879a17.724,17.724,0,0,0,6.009,13.3,7,7,0,0,0,3.076,5.62A10.013,10.013,0,0,0,4,45V58a1,1,0,0,0,1,1H17v3a1,1,0,0,0,1,1H34a1,1,0,0,0,1-1V59h7.914c.177.115.353.23.536.337L49.5,62.864a1,1,0,0,0,1.008,0l6.046-3.527A13.044,13.044,0,0,0,63,48.107V41A1,1,0,0,0,62.5,40.136ZM38,35a5,5,0,1,1,5-5A5.006,5.006,0,0,1,38,35ZM3,16.879a13.878,13.878,0,0,1,21.019-11.9l1.466.879a1,1,0,0,0,1.03,0l1.466-.879A13.878,13.878,0,0,1,49,16.879a15.746,15.746,0,0,1-4.367,10.9,7,7,0,1,0-10.54,8.026,9.977,9.977,0,0,0-2.719,1.716,6.987,6.987,0,0,0-10.748,0,9.983,9.983,0,0,0-2.72-1.716A7,7,0,1,0,7.367,27.779,15.742,15.742,0,0,1,3,16.879ZM26,47a5,5,0,1,1,5-5A5.006,5.006,0,0,1,26,47ZM9,30a5,5,0,1,1,5,5A5.006,5.006,0,0,1,9,30ZM6,57V45a7.991,7.991,0,0,1,13.56-5.74,6.986,6.986,0,0,0,2.624,8.6A9,9,0,0,0,17,56v1Zm27,4H19V56a7,7,0,0,1,14,0ZM29.816,47.861a6.986,6.986,0,0,0,2.624-8.6,7.931,7.931,0,0,1,9.04-1.448L37.5,40.136A1,1,0,0,0,37,41v7.107A13.041,13.041,0,0,0,40.532,57H35V56A9,9,0,0,0,29.816,47.861ZM61,48.107a11.036,11.036,0,0,1-5.458,9.5L50,60.842l-5.542-3.233A11.036,11.036,0,0,1,39,48.107V41.574l11-6.416,11,6.416Z"/><path d="M45.707,46.293a1,1,0,0,0-1.414,0l-3,3a1,1,0,0,0,0,1.414l6,6a1,1,0,0,0,1.414,0l11-11a1,1,0,0,0,0-1.414l-3-3a1,1,0,0,0-1.414,0L48,48.586ZM56,43.414,57.586,45,48,54.586,43.414,50,45,48.414l2.293,2.293a1,1,0,0,0,1.414,0Z"/></svg>
