<?xml version="1.0" standalone="no"?>
<!DOCTYPE svg PUBLIC "-//W3C//DTD SVG 20010904//EN"
 "http://www.w3.org/TR/2001/REC-SVG-20010904/DTD/svg10.dtd">
<svg version="1.0" xmlns="http://www.w3.org/2000/svg"
 width="512.000000pt" height="512.000000pt" viewBox="0 0 512.000000 512.000000"
 preserveAspectRatio="xMidYMid meet">

<g transform="translate(0.000000,512.000000) scale(0.100000,-0.100000)"
fill="#fff" stroke="none">
<path d="M3185 4129 c-132 -22 -250 -45 -262 -51 -33 -16 -46 -63 -28 -98 8
-16 24 -32 36 -35 12 -4 143 12 290 36 267 43 270 43 288 24 19 -20 145 -374
137 -382 -3 -3 -96 13 -208 36 -132 27 -229 41 -279 41 -82 0 -204 -27 -267
-59 -22 -11 -179 -112 -349 -224 l-309 -204 -265 13 c-145 8 -287 19 -315 24
-33 7 -76 28 -120 59 -115 80 -209 104 -320 81 -161 -33 -263 -145 -272 -302
l-5 -77 -51 -11 c-221 -47 -286 -97 -225 -174 25 -32 55 -33 133 -6 32 11 90
26 129 34 l70 15 46 -41 c88 -79 105 -82 379 -88 l244 -5 288 -349 288 -348
-12 -37 c-14 -38 -45 -53 -62 -29 -6 7 -20 40 -33 73 -59 151 -179 312 -309
416 -190 152 -409 229 -652 229 -277 0 -511 -95 -726 -293 -40 -37 -71 -56
-96 -61 -21 -4 -51 -18 -68 -33 -31 -25 -31 -25 -75 -8 -25 9 -47 21 -50 26
-15 23 139 200 251 289 34 28 65 61 68 74 9 35 -11 73 -46 87 -43 18 -80 -5
-201 -121 -113 -108 -214 -237 -223 -286 -16 -86 22 -147 126 -199 l68 -34
-24 -93 c-27 -107 -29 -146 -10 -191 31 -73 98 -111 217 -122 l76 -6 6 -88
c18 -276 163 -496 402 -611 409 -196 903 44 995 483 l10 53 198 -23 c108 -12
279 -32 380 -44 173 -21 185 -21 249 -5 167 41 292 179 311 344 7 60 9 64 317
485 l309 424 130 81 c72 45 133 78 137 74 4 -4 28 -68 54 -142 36 -106 43
-137 33 -143 -151 -88 -194 -117 -252 -166 -174 -148 -307 -381 -346 -610 -14
-77 -7 -123 25 -172 37 -57 93 -79 201 -79 l91 0 17 -80 c67 -314 362 -550
685 -550 120 0 210 22 320 76 169 83 296 234 359 422 22 65 26 96 26 202 1
104 -3 137 -22 200 -34 108 -86 200 -154 274 -64 70 -65 79 -17 121 12 11 35
40 51 64 46 72 35 174 -23 228 -31 28 -179 98 -242 114 -44 11 -51 10 -75 -8
-30 -22 -40 -69 -23 -102 6 -11 34 -27 63 -37 29 -9 81 -29 116 -45 77 -35 79
-51 15 -122 -26 -29 -49 -54 -50 -56 -1 -2 -24 6 -50 19 -98 46 -197 63 -330
57 l-121 -5 -26 72 c-14 39 -26 76 -26 83 0 7 32 17 78 25 86 14 122 39 122
83 0 33 -41 75 -74 75 -13 0 -59 -7 -102 -15 -43 -8 -79 -14 -80 -12 -2 2
-154 438 -154 442 0 0 30 -1 67 -3 83 -6 186 12 238 41 27 15 48 37 63 67 21
43 22 54 22 310 0 256 -1 267 -22 310 -29 56 -57 76 -138 96 -48 12 -92 15
-165 12 -112 -6 -184 -28 -265 -83 l-49 -33 -27 82 c-48 146 -78 202 -124 232
-62 41 -123 40 -405 -7z m1008 -350 l37 -10 0 -248 0 -249 -51 -12 c-60 -15
-185 -8 -225 12 -23 11 -35 38 -92 201 l-65 188 24 26 c34 37 89 69 145 87 58
17 173 20 227 5z m-734 -278 c133 -27 246 -52 251 -57 4 -5 37 -94 73 -199 51
-146 63 -193 54 -201 -32 -30 -295 -185 -331 -196 -22 -7 -72 -12 -111 -12
-59 1 -88 8 -189 48 -187 73 -207 75 -544 43 -158 -15 -297 -27 -309 -27 -22
0 -23 3 -23 99 l0 98 298 196 c285 188 360 231 427 248 72 17 166 8 404 -40z
m-2107 -265 c25 -7 74 -33 109 -58 114 -80 143 -86 557 -104 l162 -7 0 -88 0
-89 -482 0 c-483 0 -483 0 -523 23 -103 58 -115 220 -21 292 57 43 124 54 198
31z m1791 -489 c64 -26 148 -52 185 -58 37 -6 69 -13 70 -14 3 -3 -55 -88 -84
-124 -2 -2 -31 19 -66 47 -95 75 -128 92 -176 92 -61 0 -93 -20 -160 -102 -72
-89 -92 -126 -92 -173 0 -62 26 -99 120 -172 49 -37 89 -70 90 -74 0 -3 -14
-24 -31 -48 l-32 -42 -48 54 c-117 131 -271 177 -433 127 -36 -11 -86 -37
-112 -56 -45 -35 -47 -35 -64 -17 -33 35 -450 543 -450 548 0 3 102 5 228 6
175 0 290 7 502 29 363 38 402 36 553 -23z m-1795 -223 c193 -39 369 -145 502
-301 54 -63 136 -200 126 -210 -3 -3 -52 4 -107 16 l-102 23 -91 92 c-104 105
-202 163 -332 196 -155 40 -345 20 -482 -49 l-60 -30 -99 21 c-54 11 -104 24
-112 28 -30 16 154 137 274 179 145 52 335 65 483 35z m1801 -40 c44 -34 69
-60 64 -67 -4 -7 -26 -38 -49 -70 l-41 -57 -77 60 c-42 33 -76 63 -76 66 0 8
94 124 101 124 4 0 39 -25 78 -56z m934 -106 c14 -45 25 -82 24 -83 -1 -1 -23
-14 -49 -29 -166 -94 -292 -268 -335 -458 l-18 -78 -76 0 c-101 0 -106 6 -85
105 51 248 218 474 439 596 28 16 57 29 62 29 6 0 23 -37 38 -82z m-2791 -179
c56 -12 171 -60 181 -76 6 -9 -380 71 -391 81 -10 11 156 6 210 -5z m3240 0
c201 -42 374 -213 423 -420 93 -396 -273 -758 -673 -664 -129 31 -265 128
-338 242 -98 152 -113 360 -39 528 43 98 145 208 233 254 17 9 23 9 27 -1 2
-7 18 -51 35 -96 l30 -84 -25 -20 c-65 -51 -103 -105 -126 -179 -24 -78 -24
-131 1 -212 61 -198 297 -298 485 -207 194 94 257 354 127 525 -65 87 -141
127 -268 143 l-57 7 -32 92 c-20 60 -28 94 -21 97 22 9 166 6 218 -5z m-2952
-260 c641 -139 1169 -256 1174 -260 18 -16 -77 -53 -139 -53 -108 0 -2289 255
-2304 269 -12 11 -9 34 19 147 18 73 35 136 37 141 2 4 14 7 26 7 12 0 546
-113 1187 -251z m1102 181 c100 -28 178 -134 178 -242 0 -44 -3 -58 -14 -58
-18 0 -479 100 -484 105 -10 9 23 77 55 115 65 76 168 107 265 80z m1837 -294
c51 -27 91 -99 91 -165 0 -103 -61 -180 -161 -202 -116 -26 -239 76 -239 198
0 42 28 111 53 131 19 16 25 7 57 -93 12 -40 32 -80 46 -92 41 -38 92 -27 113
24 10 24 7 41 -19 117 -16 50 -30 95 -30 102 0 15 38 6 89 -20z m-3773 -142
l71 -6 6 -59 c21 -239 286 -387 499 -278 23 12 55 31 70 42 39 29 97 115 112
166 6 23 15 42 19 42 31 2 177 -15 187 -21 16 -10 -10 -104 -53 -184 -68 -128
-234 -250 -376 -276 -304 -56 -593 136 -656 435 -8 39 -15 90 -15 114 l0 43
33 -5 c17 -4 64 -9 103 -13z m439 -50 c88 -9 164 -20 168 -25 22 -19 -40 -107
-97 -136 -40 -21 -132 -21 -172 0 -60 31 -114 108 -114 163 0 22 3 25 28 20
15 -3 99 -13 187 -22z"/>
<path d="M2276 2689 c-33 -26 -36 -79 -6 -109 18 -18 33 -20 170 -20 137 0
152 2 170 20 30 30 27 83 -6 109 -24 19 -40 21 -164 21 -124 0 -140 -2 -164
-21z"/>
<path d="M2270 2450 c-25 -25 -26 -71 -1 -101 19 -23 24 -24 169 -24 133 0
152 2 171 19 27 25 29 86 3 109 -16 14 -43 17 -170 17 -139 0 -154 -2 -172
-20z"/>
</g>
</svg>
